<svg width="24" height="24" viewBox="0 0 24 24" fill="none" xmlns="http://www.w3.org/2000/svg">
<path fill-rule="evenodd" clip-rule="evenodd" d="M1.33333 6.66667C0.6 6.66667 0 6.06667 0 5.33333C0 4.6 0.6 4 1.33333 4H22.6667C23.4 4 24 4.6 24 5.33333C24 6.06667 23.4 6.66667 22.6667 6.66667H1.33333ZM1.33333 13.3334H22.6667C23.4 13.3334 24 12.7334 24 12.0001C24 11.2667 23.4 10.6667 22.6667 10.6667H1.33333C0.6 10.6667 0 11.2667 0 12.0001C0 12.7334 0.6 13.3334 1.33333 13.3334ZM1.33333 19.9999H22.6667C23.4 19.9999 24 19.3999 24 18.6666C24 17.9333 23.4 17.3333 22.6667 17.3333H1.33333C0.6 17.3333 0 17.9333 0 18.6666C0 19.3999 0.6 19.9999 1.33333 19.9999Z" fill="#646464"/>
</svg>
