<svg width="24" height="32" viewBox="0 0 24 32" fill="none" xmlns="http://www.w3.org/2000/svg">
<path d="M21.1107 0H8.39645C6.80056 0 5.50684 1.27919 5.50684 2.85714V24.5714C5.50684 26.1494 6.80056 27.4286 8.39645 27.4286H21.1107C22.7066 27.4286 24.0003 26.1494 24.0003 24.5714V2.85714C24.0003 1.27919 22.7066 0 21.1107 0Z" fill="#61E8E1"/>
<path d="M18.7992 2.28564H6.08492C4.48903 2.28564 3.19531 3.56483 3.19531 5.14279V26.8571C3.19531 28.435 4.48903 29.7142 6.08492 29.7142H18.7992C20.3951 29.7142 21.6888 28.435 21.6888 26.8571V5.14279C21.6888 3.56483 20.3951 2.28564 18.7992 2.28564Z" fill="#F2E863"/>
<path d="M16.4867 4.57153H3.77242C2.17653 4.57153 0.882812 5.85072 0.882812 7.42868V29.143C0.882812 30.7209 2.17653 32.0001 3.77242 32.0001H16.4867C18.0826 32.0001 19.3763 30.7209 19.3763 29.143V7.42868C19.3763 5.85072 18.0826 4.57153 16.4867 4.57153Z" fill="#F25757"/>
</svg>
