<svg width="16" height="16" viewBox="0 0 16 16" fill="none" xmlns="http://www.w3.org/2000/svg">
<path fill-rule="evenodd" clip-rule="evenodd" d="M11.8286 7.76C12.9371 6.99429 13.7143 5.73714 13.7143 4.57143C13.7143 1.98857 11.7143 0 9.14286 0H3.14286C2.51429 0 2 0.514286 2 1.14286V14.8571C2 15.4857 2.51429 16 3.14286 16H9.74857C12.1143 16 14.2743 14.0686 14.2857 11.6914C14.2971 9.94286 13.3143 8.44571 11.8286 7.76ZM5.42857 2.85714H8.85714C9.80571 2.85714 10.5714 3.62286 10.5714 4.57143C10.5714 5.52 9.80571 6.28571 8.85714 6.28571H5.42857V2.85714ZM5.42857 13.1429H9.42857C10.3771 13.1429 11.1429 12.3771 11.1429 11.4286C11.1429 10.48 10.3771 9.71429 9.42857 9.71429H5.42857V13.1429Z" fill="black" fill-opacity="0.54"/>
</svg>
