<svg width="16" height="16" viewBox="0 0 16 16" fill="none" xmlns="http://www.w3.org/2000/svg">
<path fill-rule="evenodd" clip-rule="evenodd" d="M8 0C3.58222 0 0 3.58222 0 8C0 12.4178 3.58222 16 8 16C8.73778 16 9.33333 15.4044 9.33333 14.6667C9.33333 14.32 9.2 14.0089 8.98667 13.7689C8.78222 13.5378 8.64889 13.2267 8.64889 12.8889C8.64889 12.1511 9.24444 11.5556 9.98222 11.5556H11.5556C14.0089 11.5556 16 9.56444 16 7.11111C16 3.18222 12.4178 0 8 0ZM3.11117 7.99992C2.37339 7.99992 1.77783 7.40436 1.77783 6.66658C1.77783 5.92881 2.37339 5.33325 3.11117 5.33325C3.84894 5.33325 4.4445 5.92881 4.4445 6.66658C4.4445 7.40436 3.84894 7.99992 3.11117 7.99992ZM4.44434 3.11117C4.44434 3.84894 5.03989 4.4445 5.77767 4.4445C6.51545 4.4445 7.111 3.84894 7.111 3.11117C7.111 2.37339 6.51545 1.77783 5.77767 1.77783C5.03989 1.77783 4.44434 2.37339 4.44434 3.11117ZM10.2225 4.4445C9.48472 4.4445 8.88916 3.84894 8.88916 3.11117C8.88916 2.37339 9.48472 1.77783 10.2225 1.77783C10.9603 1.77783 11.5558 2.37339 11.5558 3.11117C11.5558 3.84894 10.9603 4.4445 10.2225 4.4445ZM11.5557 6.66658C11.5557 7.40436 12.1512 7.99992 12.889 7.99992C13.6268 7.99992 14.2223 7.40436 14.2223 6.66658C14.2223 5.92881 13.6268 5.33325 12.889 5.33325C12.1512 5.33325 11.5557 5.92881 11.5557 6.66658Z" fill="#757575"/>
</svg>
