<svg width="240" height="40" viewBox="0 0 240 40" fill="none" xmlns="http://www.w3.org/2000/svg">
<path d="M0 0H220C231.046 0 240 8.95431 240 20V20C240 31.0457 231.046 40 220 40H0V0Z" fill="#F2F2F2"/>
<path d="M0 1H21C31.4934 1 40 9.50659 40 20V20C40 30.4934 31.4934 39 21 39H0V1Z" fill="#F25757"/>
<path d="M52.4062 25.0781C51.3594 24.8854 50.5781 24.362 50.0625 23.5078C49.5469 22.6536 49.2891 21.4818 49.2891 19.9922C49.2891 19.0703 49.3958 18.2734 49.6094 17.6016C49.8281 16.9245 50.125 16.3672 50.5 15.9297C50.8802 15.487 51.3229 15.1589 51.8281 14.9453C52.3385 14.7266 52.8828 14.6172 53.4609 14.6172C54.8047 14.6172 55.8151 15.0599 56.4922 15.9453C57.1693 16.8307 57.5078 18.1094 57.5078 19.7812C57.5078 20.5781 57.4271 21.2839 57.2656 21.8984C57.1042 22.513 56.875 23.0391 56.5781 23.4766C56.2865 23.9141 55.9401 24.2656 55.5391 24.5312C55.138 24.7969 54.7031 24.9792 54.2344 25.0781C54.276 25.3281 54.3438 25.5339 54.4375 25.6953C54.5365 25.8568 54.651 25.9844 54.7812 26.0781C54.9167 26.1719 55.0625 26.237 55.2188 26.2734C55.375 26.3099 55.5365 26.3281 55.7031 26.3281C55.9271 26.3281 56.1484 26.2812 56.3672 26.1875C56.5911 26.0938 56.7917 25.9635 56.9688 25.7969L57.8516 27.1094C57.5234 27.3854 57.1641 27.5964 56.7734 27.7422C56.388 27.888 56 27.9609 55.6094 27.9609C55.1198 27.9609 54.6797 27.9036 54.2891 27.7891C53.9036 27.6745 53.5729 27.4974 53.2969 27.2578C53.026 27.0234 52.8151 26.724 52.6641 26.3594C52.513 26 52.4271 25.5729 52.4062 25.0781ZM55.4766 19.9453C55.4766 18.737 55.3177 17.8359 55 17.2422C54.6823 16.6484 54.1589 16.3516 53.4297 16.3516C53.0599 16.3516 52.7422 16.4297 52.4766 16.5859C52.2109 16.737 51.9922 16.9635 51.8203 17.2656C51.6484 17.5625 51.5208 17.9297 51.4375 18.3672C51.3594 18.7995 51.3203 19.2943 51.3203 19.8516C51.3203 21.0495 51.4818 21.9479 51.8047 22.5469C52.1328 23.1458 52.6641 23.4453 53.3984 23.4453C53.7682 23.4453 54.0833 23.3698 54.3438 23.2188C54.6094 23.0625 54.8255 22.8359 54.9922 22.5391C55.1589 22.2422 55.2812 21.8776 55.3594 21.4453C55.4375 21.0078 55.4766 20.5078 55.4766 19.9453ZM60.7734 17.0625V22.2344C60.7734 22.6667 60.8542 22.9948 61.0156 23.2188C61.1771 23.4375 61.4219 23.5469 61.75 23.5469C62.0677 23.5469 62.3724 23.4167 62.6641 23.1562C62.9609 22.8906 63.2734 22.5339 63.6016 22.0859V17.0625H65.5078V25H63.8594L63.8125 23.8281C63.6458 24.0312 63.4766 24.2161 63.3047 24.3828C63.1328 24.5495 62.9453 24.6927 62.7422 24.8125C62.5443 24.9271 62.3255 25.0156 62.0859 25.0781C61.8516 25.1458 61.5911 25.1797 61.3047 25.1797C60.8984 25.1797 60.5417 25.1146 60.2344 24.9844C59.9323 24.849 59.6797 24.6589 59.4766 24.4141C59.2734 24.1693 59.1198 23.8776 59.0156 23.5391C58.9167 23.1953 58.8672 22.8125 58.8672 22.3906V17.0625H60.7734ZM72.6562 25L72.6094 23.9609C72.4427 24.138 72.2682 24.3021 72.0859 24.4531C71.9036 24.599 71.7031 24.7266 71.4844 24.8359C71.2656 24.9453 71.026 25.0286 70.7656 25.0859C70.5104 25.1484 70.2292 25.1797 69.9219 25.1797C69.5156 25.1797 69.1589 25.1198 68.8516 25C68.5443 24.8802 68.2865 24.7135 68.0781 24.5C67.8698 24.2865 67.7109 24.0286 67.6016 23.7266C67.4974 23.4245 67.4453 23.0911 67.4453 22.7266C67.4453 22.3516 67.5234 22.0052 67.6797 21.6875C67.8411 21.3698 68.0833 21.0964 68.4062 20.8672C68.7344 20.638 69.1406 20.4583 69.625 20.3281C70.1146 20.1979 70.6875 20.1328 71.3438 20.1328H72.3828V19.6562C72.3828 19.4531 72.3542 19.2708 72.2969 19.1094C72.2396 18.9427 72.1458 18.8021 72.0156 18.6875C71.8906 18.5729 71.7266 18.4844 71.5234 18.4219C71.3203 18.3594 71.0703 18.3281 70.7734 18.3281C70.3047 18.3281 69.8411 18.3828 69.3828 18.4922C68.9297 18.5964 68.4896 18.7448 68.0625 18.9375V17.4141C68.4427 17.263 68.8802 17.138 69.375 17.0391C69.875 16.9401 70.3932 16.8906 70.9297 16.8906C71.5182 16.8906 72.0234 16.9479 72.4453 17.0625C72.8672 17.1719 73.2135 17.3385 73.4844 17.5625C73.7604 17.7865 73.9635 18.0677 74.0938 18.4062C74.224 18.7396 74.2891 19.1302 74.2891 19.5781V25H72.6562ZM72.3828 21.4922H71.2188C70.8958 21.4922 70.6224 21.5234 70.3984 21.5859C70.1745 21.6484 69.9922 21.7344 69.8516 21.8438C69.7109 21.9531 69.6068 22.0807 69.5391 22.2266C69.4766 22.3672 69.4453 22.5182 69.4453 22.6797C69.4453 23.0026 69.5495 23.25 69.7578 23.4219C69.9661 23.5885 70.25 23.6719 70.6094 23.6719C70.875 23.6719 71.151 23.5755 71.4375 23.3828C71.724 23.1901 72.0391 22.9141 72.3828 22.5547V21.4922ZM81.2109 25V19.8281C81.2109 18.9583 80.888 18.5234 80.2422 18.5234C79.9193 18.5234 79.6094 18.6536 79.3125 18.9141C79.0208 19.1745 78.7109 19.5286 78.3828 19.9766V25H76.4766V17.0625H78.125L78.1719 18.2344C78.3333 18.0312 78.5 17.8464 78.6719 17.6797C78.849 17.513 79.0391 17.3724 79.2422 17.2578C79.4453 17.138 79.6641 17.0469 79.8984 16.9844C80.1328 16.9219 80.3958 16.8906 80.6875 16.8906C81.0938 16.8906 81.4479 16.9583 81.75 17.0938C82.0521 17.224 82.3047 17.4115 82.5078 17.6562C82.7109 17.8958 82.862 18.1875 82.9609 18.5312C83.0651 18.8698 83.1172 19.25 83.1172 19.6719V25H81.2109ZM91.8203 24.9219C91.4766 25 91.1302 25.0625 90.7812 25.1094C90.4323 25.1562 90.1016 25.1797 89.7891 25.1797C89.2682 25.1797 88.8177 25.125 88.4375 25.0156C88.0625 24.9062 87.75 24.7396 87.5 24.5156C87.2552 24.2917 87.0729 24.0078 86.9531 23.6641C86.8385 23.3151 86.7812 22.901 86.7812 22.4219V18.5469H84.6484V17.0625H86.7812V15.0312L88.7344 14.5234V17.0625H91.8203V18.5469H88.7344V22.2812C88.7344 22.7344 88.8385 23.0781 89.0469 23.3125C89.2552 23.5417 89.6042 23.6562 90.0938 23.6562C90.4062 23.6562 90.7109 23.6302 91.0078 23.5781C91.3047 23.526 91.5755 23.4661 91.8203 23.3984V24.9219ZM95.9609 17.0625V22.2344C95.9609 22.6667 96.0417 22.9948 96.2031 23.2188C96.3646 23.4375 96.6094 23.5469 96.9375 23.5469C97.2552 23.5469 97.5599 23.4167 97.8516 23.1562C98.1484 22.8906 98.4609 22.5339 98.7891 22.0859V17.0625H100.695V25H99.0469L99 23.8281C98.8333 24.0312 98.6641 24.2161 98.4922 24.3828C98.3203 24.5495 98.1328 24.6927 97.9297 24.8125C97.7318 24.9271 97.513 25.0156 97.2734 25.0781C97.0391 25.1458 96.7786 25.1797 96.4922 25.1797C96.0859 25.1797 95.7292 25.1146 95.4219 24.9844C95.1198 24.849 94.8672 24.6589 94.6641 24.4141C94.4609 24.1693 94.3073 23.8776 94.2031 23.5391C94.1042 23.1953 94.0547 22.8125 94.0547 22.3906V17.0625H95.9609ZM108.469 25V19.5938C108.469 19.3958 108.464 19.224 108.453 19.0781C108.443 18.9271 108.422 18.8021 108.391 18.7031C108.359 18.6042 108.312 18.5312 108.25 18.4844C108.193 18.4323 108.112 18.4062 108.008 18.4062C107.846 18.4062 107.688 18.5156 107.531 18.7344C107.375 18.9531 107.198 19.3255 107 19.8516V25H105.367V19.5938C105.367 19.3958 105.362 19.224 105.352 19.0781C105.341 18.9271 105.32 18.8021 105.289 18.7031C105.258 18.6042 105.211 18.5312 105.148 18.4844C105.086 18.4323 105.003 18.4062 104.898 18.4062C104.763 18.4062 104.612 18.5156 104.445 18.7344C104.279 18.9531 104.094 19.3255 103.891 19.8516V25H102.242V17.0625H103.656L103.688 18.2188C103.802 17.9844 103.917 17.7839 104.031 17.6172C104.146 17.4505 104.268 17.3151 104.398 17.2109C104.529 17.1016 104.667 17.0234 104.812 16.9766C104.964 16.9297 105.133 16.9062 105.32 16.9062C105.763 16.9062 106.099 17.0234 106.328 17.2578C106.562 17.487 106.695 17.8073 106.727 18.2188C106.852 17.9844 106.974 17.7839 107.094 17.6172C107.219 17.4505 107.346 17.3151 107.477 17.2109C107.612 17.1016 107.755 17.0234 107.906 16.9766C108.062 16.9297 108.234 16.9062 108.422 16.9062C109 16.9062 109.427 17.1094 109.703 17.5156C109.979 17.9167 110.117 18.513 110.117 19.3047V25H108.469ZM126.125 25L125.938 19.2266L125.867 16.9219L125.375 18.4844L124.242 21.9609H123.039L122.016 18.4844L121.586 16.9219L121.531 19.1797L121.359 25H119.727L120.227 14.7891H122.398L123.297 17.6875L123.727 19.3203L124.156 17.7812L125.102 14.7891H127.312L127.82 25H126.125ZM136.172 20.4219C136.172 20.5521 136.167 20.7214 136.156 20.9297C136.151 21.138 136.141 21.3333 136.125 21.5156H130.906C130.906 21.8646 130.958 22.1719 131.062 22.4375C131.172 22.7031 131.323 22.9271 131.516 23.1094C131.714 23.2865 131.948 23.4219 132.219 23.5156C132.495 23.6094 132.799 23.6562 133.133 23.6562C133.518 23.6562 133.93 23.6276 134.367 23.5703C134.81 23.5078 135.268 23.4089 135.742 23.2734V24.7891C135.539 24.8464 135.318 24.8984 135.078 24.9453C134.839 24.9922 134.594 25.0339 134.344 25.0703C134.094 25.1068 133.841 25.1328 133.586 25.1484C133.331 25.1693 133.083 25.1797 132.844 25.1797C132.24 25.1797 131.698 25.0938 131.219 24.9219C130.74 24.75 130.333 24.4974 130 24.1641C129.667 23.8255 129.411 23.4089 129.234 22.9141C129.057 22.4193 128.969 21.8464 128.969 21.1953C128.969 20.5495 129.057 19.9635 129.234 19.4375C129.411 18.9062 129.661 18.4531 129.984 18.0781C130.307 17.6979 130.698 17.4062 131.156 17.2031C131.62 16.9948 132.135 16.8906 132.703 16.8906C133.266 16.8906 133.763 16.9792 134.195 17.1562C134.628 17.3281 134.99 17.5703 135.281 17.8828C135.573 18.1953 135.794 18.5677 135.945 19C136.096 19.4323 136.172 19.9062 136.172 20.4219ZM134.234 20.1484C134.24 19.8359 134.201 19.5651 134.117 19.3359C134.034 19.1016 133.919 18.9089 133.773 18.7578C133.633 18.6068 133.466 18.4948 133.273 18.4219C133.086 18.349 132.883 18.3125 132.664 18.3125C132.185 18.3125 131.792 18.474 131.484 18.7969C131.177 19.1146 130.995 19.5651 130.938 20.1484H134.234ZM144.477 24.6953C144.102 24.8464 143.714 24.9583 143.312 25.0312C142.911 25.1042 142.492 25.1406 142.055 25.1406C141.424 25.1406 140.859 25.0547 140.359 24.8828C139.859 24.7109 139.435 24.4557 139.086 24.1172C138.737 23.7786 138.469 23.3594 138.281 22.8594C138.099 22.3594 138.008 21.7812 138.008 21.125C138.008 20.4896 138.107 19.9141 138.305 19.3984C138.508 18.8828 138.792 18.4427 139.156 18.0781C139.521 17.7135 139.958 17.4323 140.469 17.2344C140.984 17.0365 141.557 16.9375 142.188 16.9375C142.703 16.9375 143.135 16.9661 143.484 17.0234C143.839 17.0755 144.156 17.1432 144.438 17.2266V19.0781C144.115 18.9167 143.763 18.7917 143.383 18.7031C143.008 18.6146 142.651 18.5703 142.312 18.5703C141.958 18.5703 141.641 18.6302 141.359 18.75C141.078 18.8698 140.841 19.0365 140.648 19.25C140.456 19.4635 140.307 19.724 140.203 20.0312C140.104 20.3333 140.055 20.6667 140.055 21.0312C140.055 21.4115 140.109 21.7526 140.219 22.0547C140.328 22.3568 140.482 22.6146 140.68 22.8281C140.883 23.0365 141.125 23.1979 141.406 23.3125C141.688 23.4219 142 23.4766 142.344 23.4766C142.51 23.4766 142.685 23.4661 142.867 23.4453C143.055 23.4193 143.24 23.3854 143.422 23.3438C143.609 23.2969 143.792 23.2448 143.969 23.1875C144.151 23.1302 144.32 23.0677 144.477 23V24.6953ZM151.586 25V19.8281C151.586 18.9583 151.263 18.5234 150.617 18.5234C150.294 18.5234 149.984 18.6536 149.688 18.9141C149.396 19.1745 149.086 19.5286 148.758 19.9766V25H146.852V13.9609H148.758V16.6797L148.664 18.1172C148.826 17.9245 148.99 17.7526 149.156 17.6016C149.323 17.4453 149.503 17.3151 149.695 17.2109C149.888 17.1068 150.096 17.0286 150.32 16.9766C150.544 16.9193 150.792 16.8906 151.062 16.8906C151.469 16.8906 151.823 16.9583 152.125 17.0938C152.427 17.224 152.68 17.4115 152.883 17.6562C153.086 17.8958 153.237 18.1875 153.336 18.5312C153.44 18.8698 153.492 19.25 153.492 19.6719V25H151.586ZM160.625 25L160.578 23.9609C160.411 24.138 160.237 24.3021 160.055 24.4531C159.872 24.599 159.672 24.7266 159.453 24.8359C159.234 24.9453 158.995 25.0286 158.734 25.0859C158.479 25.1484 158.198 25.1797 157.891 25.1797C157.484 25.1797 157.128 25.1198 156.82 25C156.513 24.8802 156.255 24.7135 156.047 24.5C155.839 24.2865 155.68 24.0286 155.57 23.7266C155.466 23.4245 155.414 23.0911 155.414 22.7266C155.414 22.3516 155.492 22.0052 155.648 21.6875C155.81 21.3698 156.052 21.0964 156.375 20.8672C156.703 20.638 157.109 20.4583 157.594 20.3281C158.083 20.1979 158.656 20.1328 159.312 20.1328H160.352V19.6562C160.352 19.4531 160.323 19.2708 160.266 19.1094C160.208 18.9427 160.115 18.8021 159.984 18.6875C159.859 18.5729 159.695 18.4844 159.492 18.4219C159.289 18.3594 159.039 18.3281 158.742 18.3281C158.273 18.3281 157.81 18.3828 157.352 18.4922C156.898 18.5964 156.458 18.7448 156.031 18.9375V17.4141C156.411 17.263 156.849 17.138 157.344 17.0391C157.844 16.9401 158.362 16.8906 158.898 16.8906C159.487 16.8906 159.992 16.9479 160.414 17.0625C160.836 17.1719 161.182 17.3385 161.453 17.5625C161.729 17.7865 161.932 18.0677 162.062 18.4062C162.193 18.7396 162.258 19.1302 162.258 19.5781V25H160.625ZM160.352 21.4922H159.188C158.865 21.4922 158.591 21.5234 158.367 21.5859C158.143 21.6484 157.961 21.7344 157.82 21.8438C157.68 21.9531 157.576 22.0807 157.508 22.2266C157.445 22.3672 157.414 22.5182 157.414 22.6797C157.414 23.0026 157.518 23.25 157.727 23.4219C157.935 23.5885 158.219 23.6719 158.578 23.6719C158.844 23.6719 159.12 23.5755 159.406 23.3828C159.693 23.1901 160.008 22.9141 160.352 22.5547V21.4922ZM169.18 25V19.8281C169.18 18.9583 168.857 18.5234 168.211 18.5234C167.888 18.5234 167.578 18.6536 167.281 18.9141C166.99 19.1745 166.68 19.5286 166.352 19.9766V25H164.445V17.0625H166.094L166.141 18.2344C166.302 18.0312 166.469 17.8464 166.641 17.6797C166.818 17.513 167.008 17.3724 167.211 17.2578C167.414 17.138 167.633 17.0469 167.867 16.9844C168.102 16.9219 168.365 16.8906 168.656 16.8906C169.062 16.8906 169.417 16.9583 169.719 17.0938C170.021 17.224 170.273 17.4115 170.477 17.6562C170.68 17.8958 170.831 18.1875 170.93 18.5312C171.034 18.8698 171.086 19.25 171.086 19.6719V25H169.18ZM177.914 14.8906C177.914 15.0625 177.883 15.224 177.82 15.375C177.758 15.526 177.669 15.6589 177.555 15.7734C177.445 15.8828 177.315 15.9714 177.164 16.0391C177.013 16.1016 176.849 16.1328 176.672 16.1328C176.495 16.1328 176.328 16.1016 176.172 16.0391C176.021 15.9714 175.888 15.8828 175.773 15.7734C175.664 15.6589 175.578 15.526 175.516 15.375C175.453 15.224 175.422 15.0625 175.422 14.8906C175.422 14.7188 175.453 14.5573 175.516 14.4062C175.578 14.2552 175.664 14.1224 175.773 14.0078C175.888 13.8932 176.021 13.8047 176.172 13.7422C176.328 13.6745 176.495 13.6406 176.672 13.6406C176.849 13.6406 177.013 13.6745 177.164 13.7422C177.315 13.8047 177.445 13.8932 177.555 14.0078C177.669 14.1224 177.758 14.2552 177.82 14.4062C177.883 14.5573 177.914 14.7188 177.914 14.8906ZM175.805 18.5469H173.562V17.0625H177.758V23.5156H180.047V25H173.289V23.5156H175.805V18.5469ZM188.461 24.6953C188.086 24.8464 187.698 24.9583 187.297 25.0312C186.896 25.1042 186.477 25.1406 186.039 25.1406C185.409 25.1406 184.844 25.0547 184.344 24.8828C183.844 24.7109 183.419 24.4557 183.07 24.1172C182.721 23.7786 182.453 23.3594 182.266 22.8594C182.083 22.3594 181.992 21.7812 181.992 21.125C181.992 20.4896 182.091 19.9141 182.289 19.3984C182.492 18.8828 182.776 18.4427 183.141 18.0781C183.505 17.7135 183.943 17.4323 184.453 17.2344C184.969 17.0365 185.542 16.9375 186.172 16.9375C186.688 16.9375 187.12 16.9661 187.469 17.0234C187.823 17.0755 188.141 17.1432 188.422 17.2266V19.0781C188.099 18.9167 187.747 18.7917 187.367 18.7031C186.992 18.6146 186.635 18.5703 186.297 18.5703C185.943 18.5703 185.625 18.6302 185.344 18.75C185.062 18.8698 184.826 19.0365 184.633 19.25C184.44 19.4635 184.292 19.724 184.188 20.0312C184.089 20.3333 184.039 20.6667 184.039 21.0312C184.039 21.4115 184.094 21.7526 184.203 22.0547C184.312 22.3568 184.466 22.6146 184.664 22.8281C184.867 23.0365 185.109 23.1979 185.391 23.3125C185.672 23.4219 185.984 23.4766 186.328 23.4766C186.495 23.4766 186.669 23.4661 186.852 23.4453C187.039 23.4193 187.224 23.3854 187.406 23.3438C187.594 23.2969 187.776 23.2448 187.953 23.1875C188.135 23.1302 188.305 23.0677 188.461 23V24.6953ZM197.383 22.6641C197.383 23.1172 197.281 23.5052 197.078 23.8281C196.88 24.1458 196.615 24.4062 196.281 24.6094C195.953 24.8073 195.578 24.9505 195.156 25.0391C194.74 25.1328 194.312 25.1797 193.875 25.1797C193.292 25.1797 192.766 25.151 192.297 25.0938C191.828 25.0417 191.385 24.9635 190.969 24.8594V23.1406C191.458 23.3438 191.945 23.4922 192.43 23.5859C192.919 23.6745 193.38 23.7188 193.812 23.7188C194.312 23.7188 194.685 23.6406 194.93 23.4844C195.18 23.3229 195.305 23.1146 195.305 22.8594C195.305 22.7396 195.279 22.6302 195.227 22.5312C195.174 22.4323 195.076 22.3385 194.93 22.25C194.789 22.1562 194.589 22.0625 194.328 21.9688C194.068 21.8698 193.727 21.7604 193.305 21.6406C192.914 21.5312 192.57 21.4089 192.273 21.2734C191.982 21.1328 191.74 20.9688 191.547 20.7812C191.354 20.5938 191.208 20.3776 191.109 20.1328C191.016 19.8828 190.969 19.5911 190.969 19.2578C190.969 18.9349 191.042 18.6302 191.188 18.3438C191.333 18.0573 191.549 17.8073 191.836 17.5938C192.128 17.375 192.49 17.2031 192.922 17.0781C193.354 16.9531 193.859 16.8906 194.438 16.8906C194.938 16.8906 195.38 16.9167 195.766 16.9688C196.151 17.0208 196.492 17.0781 196.789 17.1406V18.6953C196.336 18.5495 195.909 18.4479 195.508 18.3906C195.112 18.3281 194.719 18.2969 194.328 18.2969C193.938 18.2969 193.622 18.3672 193.383 18.5078C193.148 18.6484 193.031 18.8438 193.031 19.0938C193.031 19.2135 193.055 19.3203 193.102 19.4141C193.148 19.5078 193.24 19.599 193.375 19.6875C193.516 19.776 193.708 19.8698 193.953 19.9688C194.203 20.0625 194.531 20.1667 194.938 20.2812C195.396 20.4115 195.781 20.5521 196.094 20.7031C196.406 20.849 196.656 21.0156 196.844 21.2031C197.036 21.3906 197.174 21.6042 197.258 21.8438C197.341 22.0833 197.383 22.3568 197.383 22.6641Z" fill="#A6A6A6"/>
<path fill-rule="evenodd" clip-rule="evenodd" d="M20 12C15.5822 12 12 15.5822 12 20C12 24.4178 15.5822 28 20 28C20.7378 28 21.3333 27.4044 21.3333 26.6667C21.3333 26.32 21.2 26.0089 20.9867 25.7689C20.7822 25.5378 20.6489 25.2267 20.6489 24.8889C20.6489 24.1511 21.2444 23.5556 21.9822 23.5556H23.5556C26.0089 23.5556 28 21.5644 28 19.1111C28 15.1822 24.4178 12 20 12ZM15.1112 19.9999C14.3734 19.9999 13.7778 19.4044 13.7778 18.6666C13.7778 17.9288 14.3734 17.3333 15.1112 17.3333C15.8489 17.3333 16.4445 17.9288 16.4445 18.6666C16.4445 19.4044 15.8489 19.9999 15.1112 19.9999ZM16.4443 15.1112C16.4443 15.8489 17.0399 16.4445 17.7777 16.4445C18.5154 16.4445 19.111 15.8489 19.111 15.1112C19.111 14.3734 18.5154 13.7778 17.7777 13.7778C17.0399 13.7778 16.4443 14.3734 16.4443 15.1112ZM22.2225 16.4445C21.4847 16.4445 20.8892 15.8489 20.8892 15.1112C20.8892 14.3734 21.4847 13.7778 22.2225 13.7778C22.9603 13.7778 23.5558 14.3734 23.5558 15.1112C23.5558 15.8489 22.9603 16.4445 22.2225 16.4445ZM23.5557 18.6666C23.5557 19.4044 24.1512 19.9999 24.889 19.9999C25.6268 19.9999 26.2223 19.4044 26.2223 18.6666C26.2223 17.9288 25.6268 17.3333 24.889 17.3333C24.1512 17.3333 23.5557 17.9288 23.5557 18.6666Z" fill="#F2F2F2"/>
<circle cx="220" cy="20" r="16" fill="#C4C4C4"/>
<path d="M226.857 21.1429H221.143V26.8571C221.143 27.4857 220.629 28 220 28C219.371 28 218.857 27.4857 218.857 26.8571V21.1429H213.143C212.514 21.1429 212 20.6286 212 20C212 19.3714 212.514 18.8571 213.143 18.8571H218.857V13.1429C218.857 12.5143 219.371 12 220 12C220.629 12 221.143 12.5143 221.143 13.1429V18.8571H226.857C227.486 18.8571 228 19.3714 228 20C228 20.6286 227.486 21.1429 226.857 21.1429Z" fill="#747474"/>
</svg>
