<svg width="16" height="17" viewBox="0 0 16 17" fill="none" xmlns="http://www.w3.org/2000/svg">
<path fill-rule="evenodd" clip-rule="evenodd" d="M11 1.52365H13.1429C13.6143 1.52365 14 1.90936 14 2.38079C14 2.85222 13.6143 3.23794 13.1429 3.23794H2.85715C2.38572 3.23794 2 2.85222 2 2.38079C2 1.90936 2.38572 1.52365 2.85715 1.52365H5.00001L5.60858 0.915076C5.76287 0.76079 5.98573 0.666504 6.20858 0.666504H9.79145C10.0143 0.666504 10.2372 0.76079 10.3915 0.915076L11 1.52365ZM4.5713 16.0951C3.62844 16.0951 2.85701 15.3236 2.85701 14.3808V5.80931C2.85701 4.86645 3.62844 4.09502 4.5713 4.09502H11.4285C12.3713 4.09502 13.1428 4.86645 13.1428 5.80931V14.3808C13.1428 15.3236 12.3713 16.0951 11.4285 16.0951H4.5713Z" fill="black" fill-opacity="0.54"/>
</svg>
