<svg width="336" height="192" viewBox="0 0 336 192" fill="none" xmlns="http://www.w3.org/2000/svg">
<path d="M0 0H336V192H0V0Z" fill="#F25757"/>
<path fill-rule="evenodd" clip-rule="evenodd" d="M192 77.3333V114.667C192 117.6 189.6 120 186.667 120H149.333C146.4 120 144 117.6 144 114.667V77.3333C144 74.4 146.4 72 149.333 72H186.667C189.6 72 192 74.4 192 77.3333ZM165.333 108.027L159.733 101.28C159.173 100.613 158.16 100.64 157.653 101.333L151.013 109.867C150.32 110.747 150.933 112.027 152.053 112.027H184.026C185.12 112.027 185.76 110.773 185.093 109.893L175.733 97.4132C175.2 96.6932 174.133 96.6932 173.6 97.3865L165.333 108.027Z" fill="white"/>
</svg>
