<svg width="16" height="16" viewBox="0 0 16 16" fill="none" xmlns="http://www.w3.org/2000/svg">
<path fill-rule="evenodd" clip-rule="evenodd" d="M3.76471 7.64706H0.941176C0.423529 7.64706 0 7.22353 0 6.70588V2.94118C0 2.42353 0.423529 2 0.941176 2H3.76471C4.28235 2 4.70588 2.42353 4.70588 2.94118V6.70588C4.70588 7.22353 4.28235 7.64706 3.76471 7.64706ZM3.76471 14.2351H0.941176C0.423529 14.2351 0 13.8115 0 13.2939V9.52918C0 9.01153 0.423529 8.58801 0.941176 8.58801H3.76471C4.28235 8.58801 4.70588 9.01153 4.70588 9.52918V13.2939C4.70588 13.8115 4.28235 14.2351 3.76471 14.2351ZM6.58823 14.2351H9.41176C9.92941 14.2351 10.3529 13.8115 10.3529 13.2939V9.52918C10.3529 9.01153 9.92941 8.58801 9.41176 8.58801H6.58823C6.07059 8.58801 5.64706 9.01153 5.64706 9.52918V13.2939C5.64706 13.8115 6.07059 14.2351 6.58823 14.2351ZM15.0588 14.2351H12.2353C11.7176 14.2351 11.2941 13.8115 11.2941 13.2939V9.52918C11.2941 9.01153 11.7176 8.58801 12.2353 8.58801H15.0588C15.5765 8.58801 16 9.01153 16 9.52918V13.2939C16 13.8115 15.5765 14.2351 15.0588 14.2351ZM6.58823 7.64706H9.41176C9.92941 7.64706 10.3529 7.22353 10.3529 6.70588V2.94118C10.3529 2.42353 9.92941 2 9.41176 2H6.58823C6.07059 2 5.64706 2.42353 5.64706 2.94118V6.70588C5.64706 7.22353 6.07059 7.64706 6.58823 7.64706ZM11.2941 6.70588V2.94118C11.2941 2.42353 11.7176 2 12.2353 2H15.0588C15.5765 2 16 2.42353 16 2.94118V6.70588C16 7.22353 15.5765 7.64706 15.0588 7.64706H12.2353C11.7176 7.64706 11.2941 7.22353 11.2941 6.70588Z" fill="black" fill-opacity="0.54"/>
</svg>
