<svg width="16" height="16" viewBox="0 0 16 16" fill="none" xmlns="http://www.w3.org/2000/svg">
<path fill-rule="evenodd" clip-rule="evenodd" d="M16 1.77778V14.2222C16 15.2 15.2 16 14.2222 16H1.77778C0.8 16 0 15.2 0 14.2222V1.77778C0 0.8 0.8 0 1.77778 0H14.2222C15.2 0 16 0.8 16 1.77778ZM7.11097 12.0091L5.2443 9.76019C5.05764 9.53797 4.71986 9.54686 4.55097 9.77797L2.33764 12.6224C2.10653 12.9157 2.31097 13.3424 2.6843 13.3424H13.3421C13.7065 13.3424 13.9199 12.9246 13.6976 12.6313L10.5776 8.4713C10.3999 8.23131 10.0443 8.23131 9.86653 8.46242L7.11097 12.0091Z" fill="black" fill-opacity="0.54"/>
</svg>
