<svg width="16" height="16" viewBox="0 0 16 16" fill="none" xmlns="http://www.w3.org/2000/svg">
<path d="M5.66667 1.71429C5.66667 2.66286 6.44833 3.42857 7.41667 3.42857H8.245L4.255 12.5714H2.75C1.78167 12.5714 1 13.3371 1 14.2857C1 15.2343 1.78167 16 2.75 16H8.58333C9.55167 16 10.3333 15.2343 10.3333 14.2857C10.3333 13.3371 9.55167 12.5714 8.58333 12.5714H7.755L11.745 3.42857H13.25C14.2183 3.42857 15 2.66286 15 1.71429C15 0.765714 14.2183 0 13.25 0H7.41667C6.44833 0 5.66667 0.765714 5.66667 1.71429Z" fill="black" fill-opacity="0.54"/>
</svg>