<svg width="16" height="16" viewBox="0 0 16 16" fill="none" xmlns="http://www.w3.org/2000/svg">
<path fill-rule="evenodd" clip-rule="evenodd" d="M4 10.4H6.4C6.84 10.4 7.2 10.76 7.2 11.2C7.2 11.64 6.84 12 6.4 12H4C1.792 12 0 10.208 0 8C0 5.792 1.792 4 4 4H6.4C6.84 4 7.2 4.36 7.2 4.8C7.2 5.24 6.84 5.6 6.4 5.6H4C2.68 5.6 1.6 6.68 1.6 8C1.6 9.32 2.68 10.4 4 10.4ZM12.0002 4H9.6002C9.1602 4 8.8002 4.36 8.8002 4.8C8.8002 5.24 9.1602 5.6 9.6002 5.6H12.0002C13.3202 5.6 14.4002 6.68 14.4002 8C14.4002 9.32 13.3202 10.4 12.0002 10.4H9.6002C9.1602 10.4 8.8002 10.76 8.8002 11.2C8.8002 11.64 9.1602 12 9.6002 12H12.0002C14.2082 12 16.0002 10.208 16.0002 8C16.0002 5.792 14.2082 4 12.0002 4ZM4.8 7.9998C4.8 8.43981 5.16 8.79981 5.6 8.79981H10.4C10.84 8.79981 11.2 8.43981 11.2 7.9998C11.2 7.5598 10.84 7.1998 10.4 7.1998H5.6C5.16 7.1998 4.8 7.5598 4.8 7.9998Z" fill="black" fill-opacity="0.54"/>
</svg>