<svg width="17" height="16" viewBox="0 0 17 16" fill="none" xmlns="http://www.w3.org/2000/svg">
<path fill-rule="evenodd" clip-rule="evenodd" d="M0 1.6C0 0.714667 0.714667 0 1.6 0C2.48533 0 3.2 0.714667 3.2 1.6C3.2 2.48533 2.48533 3.2 1.6 3.2C0.714667 3.2 0 2.48533 0 1.6ZM0 7.99972C0 7.11439 0.714667 6.39972 1.6 6.39972C2.48533 6.39972 3.2 7.11439 3.2 7.99972C3.2 8.88506 2.48533 9.59972 1.6 9.59972C0.714667 9.59972 0 8.88506 0 7.99972ZM1.6 12.8C0.714667 12.8 0 13.5254 0 14.4C0 15.2747 0.725333 16 1.6 16C2.47467 16 3.2 15.2747 3.2 14.4C3.2 13.5254 2.48533 12.8 1.6 12.8ZM5.8 15.6333C5.36 15.6333 5 15.1533 5 14.5667C5 13.98 5.36 13.5 5.8 13.5H15.4C15.84 13.5 16.2 13.98 16.2 14.5667C16.2 15.1533 15.84 15.6333 15.4 15.6333H5.8ZM5 8.06667C5 8.65333 5.36 9.13333 5.8 9.13333H15.4C15.84 9.13333 16.2 8.65333 16.2 8.06667C16.2 7.48 15.84 7 15.4 7H5.8C5.36 7 5 7.48 5 8.06667ZM5.5998 2.66702C5.1598 2.66702 4.7998 2.18702 4.7998 1.60036C4.7998 1.01369 5.1598 0.533691 5.5998 0.533691H15.1998C15.6398 0.533691 15.9998 1.01369 15.9998 1.60036C15.9998 2.18702 15.6398 2.66702 15.1998 2.66702H5.5998Z" fill="black" fill-opacity="0.54"/>
</svg>

