<svg width="16" height="16" viewBox="0 0 16 16" fill="none" xmlns="http://www.w3.org/2000/svg">
<path fill-rule="evenodd" clip-rule="evenodd" d="M0 6.70588V2.94118C0 2.42353 0.423529 2 0.941176 2H15.0588C15.5765 2 16 2.42353 16 2.94118V6.70588C16 7.22353 15.5765 7.64706 15.0588 7.64706H0.941176C0.423529 7.64706 0 7.22353 0 6.70588ZM15.0588 14.2353H0.941176C0.423529 14.2353 0 13.8118 0 13.2941V9.52941C0 9.01176 0.423529 8.58823 0.941176 8.58823H15.0588C15.5765 8.58823 16 9.01176 16 9.52941V13.2941C16 13.8118 15.5765 14.2353 15.0588 14.2353Z" fill="#757575"/>
</svg>
