   <svg width="auto" height="auto" viewBox="0 0 300 55" fill="none" xmlns="http://www.w3.org/2000/svg">
            
    <g clip-path="url(#clip0_46_494)">
    <path d="M295.13 0H273.701C271.011 0 268.831 2.1986 268.831 4.91071V42.2321C268.831 44.9443 271.011 47.1429 273.701 47.1429H295.13C297.819 47.1429 300 44.9443 300 42.2321V4.91071C300 2.1986 297.819 0 295.13 0Z" fill="#61E8E1"/>
    <path d="M291.234 3.92847H269.805C267.115 3.92847 264.935 6.12707 264.935 8.83918V46.1606C264.935 48.8727 267.115 51.0713 269.805 51.0713H291.234C293.923 51.0713 296.104 48.8727 296.104 46.1606V8.83918C296.104 6.12707 293.923 3.92847 291.234 3.92847Z" fill="#F2E863"/>
    <path d="M287.338 7.85718H265.909C263.219 7.85718 261.039 10.0558 261.039 12.7679V50.0893C261.039 52.8014 263.219 55 265.909 55H287.338C290.027 55 292.208 52.8014 292.208 50.0893V12.7679C292.208 10.0558 290.027 7.85718 287.338 7.85718Z" fill="#F25757"/>
    <path d="M19.5567 44.933L10.8176 25.2949L9.0198 21.0651V34.7111V44.933H3.42676V12.0267H10.9674L19.8813 31.7906L21.4543 35.6427V21.1155V12.0267H27.0474V44.933H19.5567ZM55.5119 31.9417C55.5119 33.9558 55.229 35.8021 54.663 37.4806C54.097 39.1423 53.2814 40.5689 52.216 41.7607C51.1507 42.9524 49.844 43.8755 48.2959 44.5301C46.7478 45.1847 44.9834 45.5121 43.0025 45.5121C41.1216 45.5121 39.4403 45.2351 37.9588 44.6813C36.4773 44.1273 35.2205 43.3049 34.1884 42.2138C33.1565 41.1061 32.3657 39.7297 31.8164 38.0848C31.2671 36.4231 30.9925 34.4929 30.9925 32.2941C30.9925 30.2632 31.2754 28.4169 31.8414 26.7552C32.424 25.0935 33.248 23.6752 34.3133 22.5003C35.3954 21.3253 36.7104 20.419 38.2584 19.7812C39.8065 19.1266 41.5543 18.7992 43.5019 18.7992C45.3996 18.7992 47.0891 19.0846 48.5706 19.6553C50.0521 20.2092 51.3088 21.04 52.3409 22.1478C53.373 23.2556 54.1553 24.6319 54.688 26.2768C55.2372 27.905 55.5119 29.7933 55.5119 31.9417ZM49.1698 32.0927C49.1698 29.4408 48.6705 27.4517 47.6717 26.1257C46.6896 24.783 45.2331 24.1116 43.3021 24.1116C42.2368 24.1116 41.3296 24.3214 40.5805 24.741C39.8315 25.1607 39.2156 25.7398 38.7329 26.4782C38.2501 27.2 37.8922 28.0476 37.6592 29.0211C37.4428 29.9946 37.3345 31.0353 37.3345 32.143C37.3345 34.8118 37.8672 36.826 38.9325 38.1856C39.9979 39.5284 41.4545 40.1997 43.3021 40.1997C44.3175 40.1997 45.1998 39.9983 45.9488 39.5954C46.698 39.1759 47.3055 38.6051 47.7716 37.8835C48.2377 37.1449 48.5873 36.2805 48.8203 35.2902C49.0533 34.2999 49.1698 33.2341 49.1698 32.0927ZM81.7044 44.6813C80.6057 44.933 79.4988 45.1344 78.3835 45.2855C77.2682 45.4365 76.2112 45.5121 75.2125 45.5121C73.5479 45.5121 72.108 45.3359 70.8928 44.9834C69.6943 44.6309 68.6955 44.0937 67.8966 43.372C67.1142 42.6503 66.5316 41.7355 66.1487 40.6278C65.7825 39.5031 65.5994 38.1688 65.5994 36.6245V24.1368H58.7829V19.3532H65.5994V12.8071L71.8417 11.1707V19.3532H81.7044V24.1368H71.8417V36.1714C71.8417 37.6316 72.1746 38.7394 72.8404 39.4948C73.5063 40.2332 74.6215 40.6025 76.1862 40.6025C77.185 40.6025 78.1588 40.5186 79.1076 40.3508C80.0564 40.1829 80.922 39.9899 81.7044 39.7717V44.6813ZM110.993 30.1792C110.993 30.5989 110.976 31.1444 110.943 31.8158C110.927 32.4872 110.893 33.1166 110.843 33.704H94.1638C94.1638 34.8286 94.3303 35.8189 94.6632 36.6749C95.0128 37.531 95.4955 38.2526 96.1115 38.8402C96.744 39.4108 97.493 39.8472 98.3589 40.1494C99.2404 40.4515 100.214 40.6025 101.28 40.6025C102.512 40.6025 103.827 40.5102 105.225 40.3256C106.64 40.1242 108.105 39.8053 109.62 39.3689V44.2532C108.97 44.4378 108.263 44.6056 107.497 44.7568C106.732 44.9078 105.95 45.0421 105.15 45.1596C104.351 45.277 103.544 45.361 102.728 45.4114C101.912 45.4785 101.122 45.5121 100.356 45.5121C98.4252 45.5121 96.694 45.2351 95.1626 44.6813C93.6312 44.1273 92.3328 43.3132 91.2674 42.2391C90.2021 41.148 89.3865 39.8053 88.8205 38.2107C88.2546 36.6162 87.9715 34.7699 87.9715 32.6718C87.9715 30.5905 88.2546 28.7022 88.8205 27.0069C89.3865 25.2949 90.1855 23.8347 91.2175 22.6262C92.2495 21.4008 93.498 20.4609 94.9629 19.8063C96.4444 19.1349 98.092 18.7992 99.9067 18.7992C101.705 18.7992 103.294 19.0846 104.675 19.6553C106.058 20.2092 107.214 20.9896 108.147 21.9967C109.079 23.0038 109.786 24.2039 110.268 25.597C110.751 26.9902 110.993 28.5175 110.993 30.1792ZM104.8 29.2981C104.818 28.291 104.692 27.4181 104.426 26.6797C104.16 25.9244 103.794 25.3033 103.327 24.8165C102.878 24.3298 102.346 23.969 101.729 23.7339C101.13 23.499 100.481 23.3814 99.782 23.3814C98.2508 23.3814 96.9936 23.9018 96.0115 24.9425C95.0294 25.9663 94.4469 27.4181 94.2637 29.2981H104.8ZM119.832 33.9558V28.4924H135.362V33.9558H119.832ZM168.446 28.0644C168.446 30.6157 168.13 32.932 167.497 35.0132C166.882 37.0945 165.908 38.8738 164.576 40.3508C163.261 41.811 161.571 42.944 159.507 43.7497C157.443 44.5386 154.971 44.933 152.092 44.933H143.802V12.0267H153.465C155.962 12.0267 158.143 12.3456 160.007 12.9834C161.888 13.6044 163.453 14.5696 164.701 15.8787C165.95 17.1879 166.882 18.8496 167.497 20.8638C168.13 22.8779 168.446 25.2781 168.446 28.0644ZM161.855 28.4673C161.855 26.688 161.713 25.1019 161.43 23.7088C161.148 22.3156 160.664 21.1407 159.982 20.184C159.316 19.2105 158.417 18.472 157.286 17.9685C156.154 17.4649 154.747 17.2131 153.065 17.2131H149.944V39.7465H152.641C155.654 39.7465 157.943 38.8402 159.507 37.0274C161.073 35.2147 161.855 32.3613 161.855 28.4673ZM195.338 30.1792C195.338 30.5989 195.321 31.1444 195.288 31.8158C195.272 32.4872 195.238 33.1166 195.188 33.704H178.509C178.509 34.8286 178.675 35.8189 179.008 36.6749C179.358 37.531 179.84 38.2526 180.457 38.8402C181.089 39.4108 181.838 39.8472 182.704 40.1494C183.586 40.4515 184.559 40.6025 185.625 40.6025C186.857 40.6025 188.172 40.5102 189.57 40.3256C190.985 40.1242 192.45 39.8053 193.964 39.3689V44.2532C193.316 44.4378 192.608 44.6056 191.842 44.7568C191.076 44.9078 190.294 45.0421 189.496 45.1596C188.696 45.277 187.888 45.361 187.073 45.4114C186.258 45.4785 185.467 45.5121 184.701 45.5121C182.77 45.5121 181.039 45.2351 179.508 44.6813C177.976 44.1273 176.677 43.3132 175.613 42.2391C174.547 41.148 173.732 39.8053 173.165 38.2107C172.599 36.6162 172.317 34.7699 172.317 32.6718C172.317 30.5905 172.599 28.7022 173.165 27.0069C173.732 25.2949 174.531 23.8347 175.562 22.6262C176.595 21.4008 177.843 20.4609 179.308 19.8063C180.79 19.1349 182.437 18.7992 184.251 18.7992C186.05 18.7992 187.639 19.0846 189.021 19.6553C190.402 20.2092 191.56 20.9896 192.492 21.9967C193.424 23.0038 194.131 24.2039 194.614 25.597C195.096 26.9902 195.338 28.5175 195.338 30.1792ZM189.146 29.2981C189.163 28.291 189.038 27.4181 188.771 26.6797C188.505 25.9244 188.139 25.3033 187.672 24.8165C187.223 24.3298 186.69 23.969 186.075 23.7339C185.475 23.499 184.826 23.3814 184.127 23.3814C182.596 23.3814 181.339 23.9018 180.356 24.9425C179.375 25.9663 178.792 27.4181 178.609 29.2981H189.146ZM221.88 43.951C220.681 44.4378 219.441 44.7987 218.159 45.0337C216.877 45.2687 215.538 45.3861 214.139 45.3861C212.125 45.3861 210.319 45.1092 208.721 44.5554C207.124 44.0014 205.767 43.179 204.651 42.088C203.536 40.9969 202.679 39.6458 202.08 38.0345C201.497 36.4231 201.205 34.5601 201.205 32.4452C201.205 30.3975 201.522 28.5428 202.154 26.8811C202.804 25.2194 203.711 23.8011 204.876 22.6262C206.041 21.4512 207.439 20.5449 209.071 19.907C210.719 19.2692 212.55 18.9503 214.564 18.9503C216.212 18.9503 217.593 19.0426 218.709 19.2273C219.84 19.3951 220.856 19.6133 221.755 19.8819V25.8488C220.723 25.3285 219.6 24.9257 218.384 24.6403C217.186 24.355 216.046 24.2123 214.963 24.2123C213.832 24.2123 212.816 24.4053 211.918 24.7914C211.019 25.1775 210.261 25.7145 209.645 26.4027C209.03 27.0909 208.554 27.9301 208.222 28.9204C207.906 29.8939 207.748 30.9681 207.748 32.143C207.748 33.3684 207.922 34.4678 208.272 35.4413C208.622 36.4148 209.113 37.2457 209.745 37.9337C210.394 38.6051 211.169 39.1255 212.067 39.4948C212.966 39.8472 213.965 40.0235 215.064 40.0235C215.596 40.0235 216.154 39.9899 216.736 39.9228C217.335 39.8388 217.926 39.7297 218.509 39.5954C219.108 39.4444 219.691 39.2765 220.257 39.0919C220.84 38.9072 221.38 38.7059 221.88 38.4877V43.951ZM245.176 44.933L235.812 32.143V44.933H229.72V9.35791H235.812V30.1792L244.676 19.3532H252.292L242.004 31.0101L253.141 44.933H245.176Z" fill="#646464"/>
    </g>
    <defs>
    <clipPath id="clip0_46_494">
    <rect width="300" height="55" fill="white"/>
    </clipPath>
    </defs>
    
    </svg>