<svg width="16" height="17" viewBox="0 0 16 17" fill="none" xmlns="http://www.w3.org/2000/svg">
<path fill-rule="evenodd" clip-rule="evenodd" d="M10.9907 10.3536H11.7321L15.7114 14.3517C16.0962 14.7365 16.0962 15.3653 15.7114 15.7501C15.3266 16.1349 14.6978 16.1349 14.313 15.7501L10.3243 11.7614V11.0199L10.0709 10.7572C8.75697 11.8834 6.9644 12.4653 5.05921 12.1462C2.45012 11.7051 0.36661 9.5277 0.0475131 6.89985C-0.440517 2.92991 2.90061 -0.41122 6.87055 0.07681C9.4984 0.395907 11.6758 2.47942 12.1169 5.08851C12.436 6.9937 11.8541 8.78627 10.7279 10.1002L10.9907 10.3536ZM1.8775 6.13036C1.8775 8.46728 3.76392 10.3537 6.10083 10.3537C8.43775 10.3537 10.3242 8.46728 10.3242 6.13036C10.3242 3.79345 8.43775 1.90702 6.10083 1.90702C3.76392 1.90702 1.8775 3.79345 1.8775 6.13036Z" fill="black" fill-opacity="0.54"/>
</svg>
