<svg width="16" height="16" viewBox="0 0 16 16" fill="none" xmlns="http://www.w3.org/2000/svg">
<path fill-rule="evenodd" clip-rule="evenodd" d="M13.7863 6.92426C13.7863 9.63529 11.6841 12.053 8.76234 12.3997C5.23306 12.8174 2.21484 10.2842 2.21484 7.11092V1.11108C2.21484 0.497764 2.75484 0 3.4202 0C4.08556 0 4.62556 0.497764 4.62556 1.11108V7.11092C4.62556 9.03975 6.53484 10.5686 8.70449 10.1508C10.2859 9.85751 11.3756 8.50644 11.3756 7.02203V1.11108C11.3756 0.497764 11.9156 0 12.5809 0C13.2463 0 13.7863 0.497764 13.7863 1.11108V6.92426ZM2.21429 16.0004C1.68393 16.0004 1.25 15.6004 1.25 15.1115C1.25 14.6226 1.68393 14.2227 2.21429 14.2227H13.7857C14.3161 14.2227 14.75 14.6226 14.75 15.1115C14.75 15.6004 14.3161 16.0004 13.7857 16.0004H2.21429Z" fill="black" fill-opacity="0.54"/>
</svg>
